<?xml version="1.0" encoding="UTF-8"?>
<svg xmlns="http://www.w3.org/2000/svg" id="Layer_1" data-name="Layer 1" viewBox="0 0 158 79">
  <defs>
    <style>.cls-1{fill:#fff;}</style>
  </defs>
  <title>Logowhite</title>
  <path class="cls-1" d="M19,24.26H46.83V28.8H19Zm0,9.06H46.83v4.54H19Zm0,9.06H46.83v4.54H19Zm0,9.08H46.83V56H19Z"></path>
  <path class="cls-1" d="M64.63,24.26H74.88V28.8H64.63Zm0,9.06H74.88v4.54H64.63Zm0,9.06H74.88v4.54H64.63Zm0,9.08H74.88V56H64.63ZM82.16,28.8V24.26H92.41V28.8Zm0,9.06V33.32H92.41v4.54Zm0,9.06V42.38H92.41v4.54Zm0,9.08V51.46H92.41V56Z"></path>
  <path class="cls-1" d="M110.21,24.26h5.15V28.8h-5.15Zm0,9.06h5.15v4.54h-5.15Zm0,9.06h5.15v4.54h-5.15Zm0,9.08h5.15V56h-5.15Zm11.32-27.2h5.15V28.8h-5.15Zm0,9.06h5.15v4.54h-5.15Zm0,9.06h5.15v4.54h-5.15Zm0,9.08h5.15V56h-5.15ZM132.85,28.8V24.26H138V28.8Zm0,9.06V33.32H138v4.54Zm0,9.06V42.38H138v4.54Zm0,9.08V51.46H138V56Z"></path>
</svg>
